<mxfile host="65bd71144e">
    <diagram id="P_rX8AQiGa1HzM1K2jnS" name="Activity">
        <mxGraphModel dx="1136" dy="878" grid="1" gridSize="10" guides="1" tooltips="1" connect="1" arrows="1" fold="1" page="1" pageScale="1" pageWidth="12000" pageHeight="12000" math="0" shadow="0">
            <root>
                <mxCell id="0"/>
                <mxCell id="1" parent="0"/>
                <mxCell id="mN4uDL5Rwe3rWijpfNnl-1" value="" style="rounded=0;whiteSpace=wrap;html=1;" vertex="1" parent="1">
                    <mxGeometry x="220" y="80" width="700" height="440" as="geometry"/>
                </mxCell>
                <mxCell id="NNmXSRlPjjFuGCTYdd2I-1" value="" style="rounded=0;whiteSpace=wrap;html=1;" vertex="1" parent="1">
                    <mxGeometry x="80" y="80" width="260" height="440" as="geometry"/>
                </mxCell>
                <mxCell id="NNmXSRlPjjFuGCTYdd2I-2" value="" style="rounded=0;whiteSpace=wrap;html=1;" vertex="1" parent="1">
                    <mxGeometry x="340" y="80" width="260" height="440" as="geometry"/>
                </mxCell>
                <mxCell id="NNmXSRlPjjFuGCTYdd2I-3" value="" style="endArrow=none;html=1;entryX=0.998;entryY=0.087;entryDx=0;entryDy=0;entryPerimeter=0;" edge="1" parent="1" target="mN4uDL5Rwe3rWijpfNnl-1">
                    <mxGeometry width="50" height="50" relative="1" as="geometry">
                        <mxPoint x="80" y="120" as="sourcePoint"/>
                        <mxPoint x="130" y="70" as="targetPoint"/>
                    </mxGeometry>
                </mxCell>
                <mxCell id="NNmXSRlPjjFuGCTYdd2I-4" value="Public User" style="text;html=1;strokeColor=none;fillColor=none;align=center;verticalAlign=middle;whiteSpace=wrap;rounded=0;" vertex="1" parent="1">
                    <mxGeometry x="110" y="90" width="110" height="30" as="geometry"/>
                </mxCell>
                <mxCell id="ZHKR0G6Zq3YktB_RBoOc-1" value="Staff" style="text;html=1;strokeColor=none;fillColor=none;align=center;verticalAlign=middle;whiteSpace=wrap;rounded=0;" vertex="1" parent="1">
                    <mxGeometry x="440" y="90" width="60" height="30" as="geometry"/>
                </mxCell>
                <mxCell id="ZHKR0G6Zq3YktB_RBoOc-2" value="Managment" style="text;html=1;strokeColor=none;fillColor=none;align=center;verticalAlign=middle;whiteSpace=wrap;rounded=0;" vertex="1" parent="1">
                    <mxGeometry x="630" y="90" width="60" height="30" as="geometry"/>
                </mxCell>
                <mxCell id="ZHKR0G6Zq3YktB_RBoOc-5" value="" style="edgeStyle=none;html=1;" edge="1" parent="1" source="ZHKR0G6Zq3YktB_RBoOc-3" target="ZHKR0G6Zq3YktB_RBoOc-4">
                    <mxGeometry relative="1" as="geometry"/>
                </mxCell>
                <mxCell id="ZHKR0G6Zq3YktB_RBoOc-3" value="" style="ellipse;whiteSpace=wrap;html=1;" vertex="1" parent="1">
                    <mxGeometry x="135" y="130" width="30" height="30" as="geometry"/>
                </mxCell>
                <mxCell id="ZHKR0G6Zq3YktB_RBoOc-7" value="" style="edgeStyle=none;html=1;" edge="1" parent="1" source="ZHKR0G6Zq3YktB_RBoOc-4" target="ZHKR0G6Zq3YktB_RBoOc-6">
                    <mxGeometry relative="1" as="geometry"/>
                </mxCell>
                <mxCell id="ZHKR0G6Zq3YktB_RBoOc-4" value="Log in&amp;nbsp;" style="rounded=0;whiteSpace=wrap;html=1;" vertex="1" parent="1">
                    <mxGeometry x="90" y="190" width="120" height="40" as="geometry"/>
                </mxCell>
                <mxCell id="ZHKR0G6Zq3YktB_RBoOc-9" value="" style="edgeStyle=none;html=1;" edge="1" parent="1" source="ZHKR0G6Zq3YktB_RBoOc-6" target="ZHKR0G6Zq3YktB_RBoOc-8">
                    <mxGeometry relative="1" as="geometry"/>
                </mxCell>
                <mxCell id="LVAxXVCzHjJxLup-f73d-1" value="" style="edgeStyle=none;html=1;" edge="1" parent="1" source="ZHKR0G6Zq3YktB_RBoOc-6" target="9uI7PxEhthXcLw5cB1KO-6">
                    <mxGeometry relative="1" as="geometry"/>
                </mxCell>
                <mxCell id="ZHKR0G6Zq3YktB_RBoOc-6" value="Submit case" style="rounded=0;whiteSpace=wrap;html=1;" vertex="1" parent="1">
                    <mxGeometry x="90" y="260" width="120" height="50" as="geometry"/>
                </mxCell>
                <mxCell id="ZHKR0G6Zq3YktB_RBoOc-13" value="" style="edgeStyle=none;html=1;" edge="1" parent="1" source="ZHKR0G6Zq3YktB_RBoOc-8" target="ZHKR0G6Zq3YktB_RBoOc-11">
                    <mxGeometry relative="1" as="geometry"/>
                </mxCell>
                <mxCell id="ZHKR0G6Zq3YktB_RBoOc-8" value="case progress" style="rounded=0;whiteSpace=wrap;html=1;" vertex="1" parent="1">
                    <mxGeometry x="90" y="340" width="120" height="60" as="geometry"/>
                </mxCell>
                <mxCell id="ZHKR0G6Zq3YktB_RBoOc-11" value="" style="ellipse;whiteSpace=wrap;html=1;" vertex="1" parent="1">
                    <mxGeometry x="135" y="450" width="30" height="30" as="geometry"/>
                </mxCell>
                <mxCell id="ZHKR0G6Zq3YktB_RBoOc-14" value="" style="edgeStyle=none;html=1;" edge="1" source="ZHKR0G6Zq3YktB_RBoOc-15" target="ZHKR0G6Zq3YktB_RBoOc-16" parent="1">
                    <mxGeometry relative="1" as="geometry"/>
                </mxCell>
                <mxCell id="ZHKR0G6Zq3YktB_RBoOc-15" value="" style="ellipse;whiteSpace=wrap;html=1;" vertex="1" parent="1">
                    <mxGeometry x="455" y="130" width="30" height="30" as="geometry"/>
                </mxCell>
                <mxCell id="bOBEMfMwYJYYGye7ltGa-1" value="" style="edgeStyle=none;html=1;" edge="1" parent="1" source="ZHKR0G6Zq3YktB_RBoOc-16" target="ZHKR0G6Zq3YktB_RBoOc-18">
                    <mxGeometry relative="1" as="geometry"/>
                </mxCell>
                <mxCell id="ZHKR0G6Zq3YktB_RBoOc-16" value="Log in&amp;nbsp;" style="rounded=0;whiteSpace=wrap;html=1;" vertex="1" parent="1">
                    <mxGeometry x="410" y="190" width="120" height="40" as="geometry"/>
                </mxCell>
                <mxCell id="4OjmAuTpbivCZhfNz6DA-4" style="edgeStyle=none;html=1;entryX=0;entryY=0.5;entryDx=0;entryDy=0;" edge="1" parent="1" source="ZHKR0G6Zq3YktB_RBoOc-18" target="4OjmAuTpbivCZhfNz6DA-1">
                    <mxGeometry relative="1" as="geometry"/>
                </mxCell>
                <mxCell id="9uI7PxEhthXcLw5cB1KO-2" value="" style="edgeStyle=none;html=1;" edge="1" parent="1" source="ZHKR0G6Zq3YktB_RBoOc-18" target="4OjmAuTpbivCZhfNz6DA-3">
                    <mxGeometry relative="1" as="geometry"/>
                </mxCell>
                <mxCell id="LVAxXVCzHjJxLup-f73d-3" value="" style="edgeStyle=none;html=1;" edge="1" parent="1" source="ZHKR0G6Zq3YktB_RBoOc-18" target="9uI7PxEhthXcLw5cB1KO-6">
                    <mxGeometry relative="1" as="geometry">
                        <Array as="points">
                            <mxPoint x="390" y="270"/>
                        </Array>
                    </mxGeometry>
                </mxCell>
                <mxCell id="ZHKR0G6Zq3YktB_RBoOc-18" value="Respond to case" style="rounded=0;whiteSpace=wrap;html=1;" vertex="1" parent="1">
                    <mxGeometry x="410" y="260" width="120" height="40" as="geometry"/>
                </mxCell>
                <mxCell id="bOBEMfMwYJYYGye7ltGa-3" value="" style="edgeStyle=none;html=1;" edge="1" source="bOBEMfMwYJYYGye7ltGa-4" target="bOBEMfMwYJYYGye7ltGa-5" parent="1">
                    <mxGeometry relative="1" as="geometry"/>
                </mxCell>
                <mxCell id="bOBEMfMwYJYYGye7ltGa-4" value="" style="ellipse;whiteSpace=wrap;html=1;" vertex="1" parent="1">
                    <mxGeometry x="655" y="130" width="30" height="30" as="geometry"/>
                </mxCell>
                <mxCell id="LVAxXVCzHjJxLup-f73d-4" value="" style="edgeStyle=none;html=1;" edge="1" parent="1" source="bOBEMfMwYJYYGye7ltGa-5" target="4OjmAuTpbivCZhfNz6DA-1">
                    <mxGeometry relative="1" as="geometry"/>
                </mxCell>
                <mxCell id="LVAxXVCzHjJxLup-f73d-10" value="" style="edgeStyle=none;html=1;" edge="1" parent="1" source="bOBEMfMwYJYYGye7ltGa-5" target="LVAxXVCzHjJxLup-f73d-9">
                    <mxGeometry relative="1" as="geometry"/>
                </mxCell>
                <mxCell id="bOBEMfMwYJYYGye7ltGa-5" value="Log in&amp;nbsp;" style="rounded=0;whiteSpace=wrap;html=1;" vertex="1" parent="1">
                    <mxGeometry x="610" y="190" width="120" height="40" as="geometry"/>
                </mxCell>
                <mxCell id="V7cWjkwofcYlcYFgJLFm-6" value="" style="edgeStyle=none;html=1;" edge="1" parent="1" source="4OjmAuTpbivCZhfNz6DA-1" target="V7cWjkwofcYlcYFgJLFm-4">
                    <mxGeometry relative="1" as="geometry"/>
                </mxCell>
                <mxCell id="4OjmAuTpbivCZhfNz6DA-1" value="Approve/Decline" style="rounded=0;whiteSpace=wrap;html=1;" vertex="1" parent="1">
                    <mxGeometry x="620" y="260" width="120" height="40" as="geometry"/>
                </mxCell>
                <mxCell id="LVAxXVCzHjJxLup-f73d-6" value="" style="edgeStyle=none;html=1;" edge="1" parent="1" source="4OjmAuTpbivCZhfNz6DA-3" target="LVAxXVCzHjJxLup-f73d-5">
                    <mxGeometry relative="1" as="geometry"/>
                </mxCell>
                <mxCell id="4OjmAuTpbivCZhfNz6DA-3" value="case progress" style="rounded=0;whiteSpace=wrap;html=1;" vertex="1" parent="1">
                    <mxGeometry x="410" y="340" width="120" height="40" as="geometry"/>
                </mxCell>
                <mxCell id="9uI7PxEhthXcLw5cB1KO-1" value="update" style="text;html=1;strokeColor=none;fillColor=none;align=center;verticalAlign=middle;whiteSpace=wrap;rounded=0;" vertex="1" parent="1">
                    <mxGeometry x="485" y="310" width="60" height="30" as="geometry"/>
                </mxCell>
                <mxCell id="LVAxXVCzHjJxLup-f73d-2" value="" style="edgeStyle=none;html=1;" edge="1" parent="1" source="9uI7PxEhthXcLw5cB1KO-6" target="ZHKR0G6Zq3YktB_RBoOc-18">
                    <mxGeometry relative="1" as="geometry">
                        <Array as="points">
                            <mxPoint x="380" y="310"/>
                        </Array>
                    </mxGeometry>
                </mxCell>
                <mxCell id="9uI7PxEhthXcLw5cB1KO-6" value="Case sorting&amp;amp; distributing" style="rounded=0;whiteSpace=wrap;html=1;" vertex="1" parent="1">
                    <mxGeometry x="240" y="255" width="120" height="60" as="geometry"/>
                </mxCell>
                <mxCell id="LVAxXVCzHjJxLup-f73d-5" value="" style="ellipse;whiteSpace=wrap;html=1;" vertex="1" parent="1">
                    <mxGeometry x="440" y="425" width="60" height="55" as="geometry"/>
                </mxCell>
                <mxCell id="V7cWjkwofcYlcYFgJLFm-7" style="edgeStyle=none;html=1;entryX=0.5;entryY=0;entryDx=0;entryDy=0;" edge="1" parent="1" source="LVAxXVCzHjJxLup-f73d-7" target="V7cWjkwofcYlcYFgJLFm-4">
                    <mxGeometry relative="1" as="geometry">
                        <Array as="points">
                            <mxPoint x="830" y="340"/>
                            <mxPoint x="680" y="340"/>
                        </Array>
                    </mxGeometry>
                </mxCell>
                <mxCell id="LVAxXVCzHjJxLup-f73d-7" value="Respond to case" style="rounded=0;whiteSpace=wrap;html=1;" vertex="1" parent="1">
                    <mxGeometry x="770" y="260" width="120" height="50" as="geometry"/>
                </mxCell>
                <mxCell id="LVAxXVCzHjJxLup-f73d-12" value="" style="edgeStyle=none;html=1;" edge="1" parent="1" source="LVAxXVCzHjJxLup-f73d-9" target="LVAxXVCzHjJxLup-f73d-7">
                    <mxGeometry relative="1" as="geometry"/>
                </mxCell>
                <mxCell id="LVAxXVCzHjJxLup-f73d-9" value="case progress" style="rounded=0;whiteSpace=wrap;html=1;" vertex="1" parent="1">
                    <mxGeometry x="770" y="180" width="120" height="50" as="geometry"/>
                </mxCell>
                <mxCell id="LVAxXVCzHjJxLup-f73d-11" value="Check" style="text;html=1;strokeColor=none;fillColor=none;align=center;verticalAlign=middle;whiteSpace=wrap;rounded=0;" vertex="1" parent="1">
                    <mxGeometry x="730" y="190" width="40" height="10" as="geometry"/>
                </mxCell>
                <mxCell id="V7cWjkwofcYlcYFgJLFm-3" value="" style="edgeStyle=none;html=1;" edge="1" source="V7cWjkwofcYlcYFgJLFm-4" target="V7cWjkwofcYlcYFgJLFm-5" parent="1">
                    <mxGeometry relative="1" as="geometry"/>
                </mxCell>
                <mxCell id="V7cWjkwofcYlcYFgJLFm-4" value="case progress" style="rounded=0;whiteSpace=wrap;html=1;" vertex="1" parent="1">
                    <mxGeometry x="620" y="380" width="120" height="40" as="geometry"/>
                </mxCell>
                <mxCell id="V7cWjkwofcYlcYFgJLFm-5" value="" style="ellipse;whiteSpace=wrap;html=1;" vertex="1" parent="1">
                    <mxGeometry x="665" y="450" width="30" height="25" as="geometry"/>
                </mxCell>
                <mxCell id="V7cWjkwofcYlcYFgJLFm-8" value="Update" style="text;html=1;strokeColor=none;fillColor=none;align=center;verticalAlign=middle;whiteSpace=wrap;rounded=0;" vertex="1" parent="1">
                    <mxGeometry x="695" y="345" width="60" height="30" as="geometry"/>
                </mxCell>
            </root>
        </mxGraphModel>
    </diagram>
    <diagram id="foOTeCVElTLp5QpE9FOn" name="usecase">
        <mxGraphModel dx="1288" dy="995" grid="1" gridSize="10" guides="1" tooltips="1" connect="1" arrows="1" fold="1" page="1" pageScale="1" pageWidth="12000" pageHeight="12000" math="0" shadow="0">
            <root>
                <mxCell id="0"/>
                <mxCell id="1" parent="0"/>
                <mxCell id="QWuHeJ0BpZDiXMn7vroC-1" value="" style="rounded=0;whiteSpace=wrap;html=1;rotation=90;" parent="1" vertex="1">
                    <mxGeometry x="22.090000000000003" y="220" width="866.25" height="600.79" as="geometry"/>
                </mxCell>
                <mxCell id="QWuHeJ0BpZDiXMn7vroC-3" value="&lt;font style=&quot;font-size: 22px;&quot;&gt;Faculty of Computing Feedback System&amp;nbsp;&lt;/font&gt;" style="text;strokeColor=none;align=center;fillColor=none;html=1;verticalAlign=middle;whiteSpace=wrap;rounded=0;" parent="1" vertex="1">
                    <mxGeometry x="265.25" y="120" width="400" height="30" as="geometry"/>
                </mxCell>
                <mxCell id="vVt0Fr_P-6wwKRLOkvX0-14" style="edgeStyle=none;html=1;entryX=0;entryY=0.5;entryDx=0;entryDy=0;" edge="1" parent="1" source="C3Y4BvtEVhjkNEkZPjdd-1" target="C3Y4BvtEVhjkNEkZPjdd-7">
                    <mxGeometry relative="1" as="geometry"/>
                </mxCell>
                <mxCell id="vVt0Fr_P-6wwKRLOkvX0-15" style="edgeStyle=none;html=1;entryX=0;entryY=0.5;entryDx=0;entryDy=0;" edge="1" parent="1" source="C3Y4BvtEVhjkNEkZPjdd-1" target="C3Y4BvtEVhjkNEkZPjdd-6">
                    <mxGeometry relative="1" as="geometry"/>
                </mxCell>
                <mxCell id="C3Y4BvtEVhjkNEkZPjdd-1" value="Public" style="shape=umlActor;verticalLabelPosition=bottom;verticalAlign=top;html=1;outlineConnect=0;" parent="1" vertex="1">
                    <mxGeometry x="38" y="251" width="37" height="69" as="geometry"/>
                </mxCell>
                <mxCell id="vVt0Fr_P-6wwKRLOkvX0-3" style="edgeStyle=none;html=1;entryX=1;entryY=0.5;entryDx=0;entryDy=0;" edge="1" parent="1" source="C3Y4BvtEVhjkNEkZPjdd-2" target="C3Y4BvtEVhjkNEkZPjdd-6">
                    <mxGeometry relative="1" as="geometry"/>
                </mxCell>
                <mxCell id="vVt0Fr_P-6wwKRLOkvX0-4" style="edgeStyle=none;html=1;entryX=1;entryY=0.5;entryDx=0;entryDy=0;" edge="1" parent="1" source="C3Y4BvtEVhjkNEkZPjdd-2" target="C3Y4BvtEVhjkNEkZPjdd-9">
                    <mxGeometry relative="1" as="geometry"/>
                </mxCell>
                <mxCell id="C3Y4BvtEVhjkNEkZPjdd-2" value="staff" style="shape=umlActor;verticalLabelPosition=bottom;verticalAlign=top;html=1;outlineConnect=0;" parent="1" vertex="1">
                    <mxGeometry x="820" y="231.5" width="37" height="69" as="geometry"/>
                </mxCell>
                <mxCell id="vVt0Fr_P-6wwKRLOkvX0-5" style="edgeStyle=none;html=1;entryX=1;entryY=0.5;entryDx=0;entryDy=0;" edge="1" parent="1" source="C3Y4BvtEVhjkNEkZPjdd-3" target="C3Y4BvtEVhjkNEkZPjdd-17">
                    <mxGeometry relative="1" as="geometry"/>
                </mxCell>
                <mxCell id="vVt0Fr_P-6wwKRLOkvX0-7" style="edgeStyle=none;html=1;entryX=1;entryY=0.5;entryDx=0;entryDy=0;" edge="1" parent="1" source="C3Y4BvtEVhjkNEkZPjdd-3" target="C3Y4BvtEVhjkNEkZPjdd-9">
                    <mxGeometry relative="1" as="geometry"/>
                </mxCell>
                <mxCell id="vVt0Fr_P-6wwKRLOkvX0-8" style="edgeStyle=none;html=1;entryX=1;entryY=0.5;entryDx=0;entryDy=0;" edge="1" parent="1" source="C3Y4BvtEVhjkNEkZPjdd-3" target="C3Y4BvtEVhjkNEkZPjdd-8">
                    <mxGeometry relative="1" as="geometry"/>
                </mxCell>
                <mxCell id="vVt0Fr_P-6wwKRLOkvX0-9" style="edgeStyle=none;html=1;entryX=1;entryY=0.5;entryDx=0;entryDy=0;" edge="1" parent="1" source="C3Y4BvtEVhjkNEkZPjdd-3" target="C3Y4BvtEVhjkNEkZPjdd-6">
                    <mxGeometry relative="1" as="geometry"/>
                </mxCell>
                <mxCell id="C3Y4BvtEVhjkNEkZPjdd-3" value="management level" style="shape=umlActor;verticalLabelPosition=bottom;verticalAlign=top;html=1;outlineConnect=0;" parent="1" vertex="1">
                    <mxGeometry x="820" y="820.79" width="37" height="69" as="geometry"/>
                </mxCell>
                <mxCell id="C3Y4BvtEVhjkNEkZPjdd-6" value="" style="ellipse;whiteSpace=wrap;html=1;fontSize=22;" parent="1" vertex="1">
                    <mxGeometry x="361.25" y="180" width="240" height="40" as="geometry"/>
                </mxCell>
                <mxCell id="C3Y4BvtEVhjkNEkZPjdd-7" value="" style="ellipse;whiteSpace=wrap;html=1;fontSize=22;" parent="1" vertex="1">
                    <mxGeometry x="361.25" y="265.5" width="240" height="40" as="geometry"/>
                </mxCell>
                <mxCell id="C3Y4BvtEVhjkNEkZPjdd-8" value="" style="ellipse;whiteSpace=wrap;html=1;fontSize=22;" parent="1" vertex="1">
                    <mxGeometry x="361.25" y="401" width="240" height="40" as="geometry"/>
                </mxCell>
                <mxCell id="C3Y4BvtEVhjkNEkZPjdd-9" value="" style="ellipse;whiteSpace=wrap;html=1;fontSize=22;" parent="1" vertex="1">
                    <mxGeometry x="361.25" y="530" width="240" height="40" as="geometry"/>
                </mxCell>
                <mxCell id="C3Y4BvtEVhjkNEkZPjdd-11" value="Authentication&amp;nbsp; Subsystem&amp;nbsp;" style="text;html=1;strokeColor=none;fillColor=none;align=center;verticalAlign=middle;whiteSpace=wrap;rounded=0;" parent="1" vertex="1">
                    <mxGeometry x="406.25" y="190" width="150" height="30" as="geometry"/>
                </mxCell>
                <mxCell id="C3Y4BvtEVhjkNEkZPjdd-12" value="Feedback submit&amp;nbsp;" style="text;html=1;strokeColor=none;fillColor=none;align=center;verticalAlign=middle;whiteSpace=wrap;rounded=0;" parent="1" vertex="1">
                    <mxGeometry x="406.25" y="270.5" width="150" height="30" as="geometry"/>
                </mxCell>
                <mxCell id="C3Y4BvtEVhjkNEkZPjdd-14" value="&lt;span style=&quot;font-size: 12px;&quot;&gt;case sorting&amp;amp;distribution system&lt;/span&gt;" style="text;html=1;strokeColor=none;fillColor=none;align=center;verticalAlign=middle;whiteSpace=wrap;rounded=0;fontSize=22;" parent="1" vertex="1">
                    <mxGeometry x="391.25" y="401" width="180" height="30" as="geometry"/>
                </mxCell>
                <mxCell id="C3Y4BvtEVhjkNEkZPjdd-15" value="&lt;span style=&quot;font-size: 12px;&quot;&gt;Case Respond system&lt;/span&gt;" style="text;html=1;strokeColor=none;fillColor=none;align=center;verticalAlign=middle;whiteSpace=wrap;rounded=0;fontSize=22;" parent="1" vertex="1">
                    <mxGeometry x="421.25" y="535" width="150" height="30" as="geometry"/>
                </mxCell>
                <mxCell id="C3Y4BvtEVhjkNEkZPjdd-17" value="" style="ellipse;whiteSpace=wrap;html=1;fontSize=22;" parent="1" vertex="1">
                    <mxGeometry x="367.25" y="870" width="240" height="40" as="geometry"/>
                </mxCell>
                <mxCell id="vVt0Fr_P-6wwKRLOkvX0-2" style="edgeStyle=none;html=1;" edge="1" parent="1" source="C3Y4BvtEVhjkNEkZPjdd-18" target="C3Y4BvtEVhjkNEkZPjdd-1">
                    <mxGeometry relative="1" as="geometry">
                        <Array as="points">
                            <mxPoint x="360" y="700"/>
                        </Array>
                    </mxGeometry>
                </mxCell>
                <mxCell id="vVt0Fr_P-6wwKRLOkvX0-12" style="edgeStyle=none;html=1;entryX=0;entryY=0.3333333333333333;entryDx=0;entryDy=0;entryPerimeter=0;exitX=1;exitY=0.5;exitDx=0;exitDy=0;" edge="1" parent="1" source="C3Y4BvtEVhjkNEkZPjdd-18" target="C3Y4BvtEVhjkNEkZPjdd-3">
                    <mxGeometry relative="1" as="geometry"/>
                </mxCell>
                <mxCell id="C3Y4BvtEVhjkNEkZPjdd-18" value="" style="ellipse;whiteSpace=wrap;html=1;fontSize=22;" parent="1" vertex="1">
                    <mxGeometry x="361.25" y="680" width="240" height="40" as="geometry"/>
                </mxCell>
                <mxCell id="C3Y4BvtEVhjkNEkZPjdd-21" value="&lt;span style=&quot;font-size: 12px;&quot;&gt;case progress&lt;/span&gt;" style="text;html=1;strokeColor=none;fillColor=none;align=center;verticalAlign=middle;whiteSpace=wrap;rounded=0;fontSize=22;" parent="1" vertex="1">
                    <mxGeometry x="422.5" y="685" width="130" height="30" as="geometry"/>
                </mxCell>
                <mxCell id="C3Y4BvtEVhjkNEkZPjdd-22" value="&lt;span style=&quot;font-size: 12px;&quot;&gt;Approval system&lt;/span&gt;" style="text;html=1;strokeColor=none;fillColor=none;align=center;verticalAlign=middle;whiteSpace=wrap;rounded=0;fontSize=22;" parent="1" vertex="1">
                    <mxGeometry x="431.25" y="875" width="130" height="30" as="geometry"/>
                </mxCell>
            </root>
        </mxGraphModel>
    </diagram>
    <diagram id="JzQemgkFdhQB0akfagih" name="Sequence">
        <mxGraphModel dx="1288" dy="995" grid="1" gridSize="10" guides="1" tooltips="1" connect="1" arrows="1" fold="1" page="1" pageScale="1" pageWidth="12000" pageHeight="12000" math="0" shadow="0">
            <root>
                <mxCell id="0"/>
                <mxCell id="1" parent="0"/>
                <mxCell id="5Xi4WAMcpLhrSl4ZxWZ_-4" value="Public" style="shape=umlActor;verticalLabelPosition=bottom;verticalAlign=top;html=1;outlineConnect=0;" parent="1" vertex="1">
                    <mxGeometry x="53" y="51" width="37" height="69" as="geometry"/>
                </mxCell>
                <mxCell id="5Xi4WAMcpLhrSl4ZxWZ_-5" value="staff" style="shape=umlActor;verticalLabelPosition=bottom;verticalAlign=top;html=1;outlineConnect=0;" parent="1" vertex="1">
                    <mxGeometry x="223" y="51" width="37" height="69" as="geometry"/>
                </mxCell>
                <mxCell id="5Xi4WAMcpLhrSl4ZxWZ_-6" value="management level" style="shape=umlActor;verticalLabelPosition=bottom;verticalAlign=top;html=1;outlineConnect=0;" parent="1" vertex="1">
                    <mxGeometry x="142" y="51" width="37" height="69" as="geometry"/>
                </mxCell>
                <mxCell id="DtiXAb6MUSf0ua5cTgKZ-2" value="" style="rounded=0;whiteSpace=wrap;html=1;" parent="1" vertex="1">
                    <mxGeometry x="326" y="70.5" width="180" height="30" as="geometry"/>
                </mxCell>
                <mxCell id="DtiXAb6MUSf0ua5cTgKZ-3" value="Authentication&amp;nbsp; Subsystem&amp;nbsp;" style="text;html=1;strokeColor=none;fillColor=none;align=center;verticalAlign=middle;whiteSpace=wrap;rounded=0;" parent="1" vertex="1">
                    <mxGeometry x="346" y="70.5" width="150" height="30" as="geometry"/>
                </mxCell>
                <mxCell id="DtiXAb6MUSf0ua5cTgKZ-6" value="" style="rounded=0;whiteSpace=wrap;html=1;" parent="1" vertex="1">
                    <mxGeometry x="558" y="70.5" width="162" height="29.5" as="geometry"/>
                </mxCell>
                <mxCell id="DtiXAb6MUSf0ua5cTgKZ-7" value="Feedback submit&amp;nbsp;" style="text;html=1;strokeColor=none;fillColor=none;align=center;verticalAlign=middle;whiteSpace=wrap;rounded=0;" parent="1" vertex="1">
                    <mxGeometry x="565" y="70.5" width="150" height="30" as="geometry"/>
                </mxCell>
                <mxCell id="DtiXAb6MUSf0ua5cTgKZ-8" value="" style="endArrow=none;dashed=1;html=1;entryX=0.5;entryY=0.5;entryDx=0;entryDy=0;entryPerimeter=0;startArrow=none;" parent="1" source="DtiXAb6MUSf0ua5cTgKZ-13" target="5Xi4WAMcpLhrSl4ZxWZ_-4" edge="1">
                    <mxGeometry width="50" height="50" relative="1" as="geometry">
                        <mxPoint x="70" y="660.6896551724138" as="sourcePoint"/>
                        <mxPoint x="71.16" y="160" as="targetPoint"/>
                    </mxGeometry>
                </mxCell>
                <mxCell id="DtiXAb6MUSf0ua5cTgKZ-9" value="" style="endArrow=none;dashed=1;html=1;entryX=0.5;entryY=0.5;entryDx=0;entryDy=0;entryPerimeter=0;exitX=0.5;exitY=0;exitDx=0;exitDy=0;exitPerimeter=0;" parent="1" source="qU1PiASJAw2EJlzAkGvy-3" edge="1">
                    <mxGeometry width="50" height="50" relative="1" as="geometry">
                        <mxPoint x="161" y="660" as="sourcePoint"/>
                        <mxPoint x="160.5" y="95.5" as="targetPoint"/>
                    </mxGeometry>
                </mxCell>
                <mxCell id="DtiXAb6MUSf0ua5cTgKZ-10" value="" style="endArrow=none;dashed=1;html=1;entryX=0.5;entryY=0.5;entryDx=0;entryDy=0;entryPerimeter=0;exitX=0.5;exitY=0;exitDx=0;exitDy=0;exitPerimeter=0;" parent="1" source="qU1PiASJAw2EJlzAkGvy-2" edge="1">
                    <mxGeometry width="50" height="50" relative="1" as="geometry">
                        <mxPoint x="242" y="660" as="sourcePoint"/>
                        <mxPoint x="241.5" y="98.5" as="targetPoint"/>
                    </mxGeometry>
                </mxCell>
                <mxCell id="DtiXAb6MUSf0ua5cTgKZ-11" value="" style="endArrow=none;dashed=1;html=1;startArrow=none;" parent="1" source="DtiXAb6MUSf0ua5cTgKZ-15" edge="1">
                    <mxGeometry width="50" height="50" relative="1" as="geometry">
                        <mxPoint x="420" y="650.6896551724138" as="sourcePoint"/>
                        <mxPoint x="420.65999999999997" y="100" as="targetPoint"/>
                    </mxGeometry>
                </mxCell>
                <mxCell id="DtiXAb6MUSf0ua5cTgKZ-12" value="" style="endArrow=none;dashed=1;html=1;exitX=0.562;exitY=-0.045;exitDx=0;exitDy=0;exitPerimeter=0;" parent="1" source="qU1PiASJAw2EJlzAkGvy-7" edge="1">
                    <mxGeometry width="50" height="50" relative="1" as="geometry">
                        <mxPoint x="648" y="649.689655172414" as="sourcePoint"/>
                        <mxPoint x="648.6599999999999" y="99" as="targetPoint"/>
                    </mxGeometry>
                </mxCell>
                <mxCell id="DtiXAb6MUSf0ua5cTgKZ-14" value="" style="endArrow=none;dashed=1;html=1;entryX=0.5;entryY=0.5;entryDx=0;entryDy=0;entryPerimeter=0;exitX=0.5;exitY=0;exitDx=0;exitDy=0;exitPerimeter=0;" parent="1" source="qU1PiASJAw2EJlzAkGvy-1" target="DtiXAb6MUSf0ua5cTgKZ-13" edge="1">
                    <mxGeometry width="50" height="50" relative="1" as="geometry">
                        <mxPoint x="70" y="660.689655172414" as="sourcePoint"/>
                        <mxPoint x="71.5" y="85.5" as="targetPoint"/>
                    </mxGeometry>
                </mxCell>
                <mxCell id="DtiXAb6MUSf0ua5cTgKZ-13" value="" style="rounded=0;whiteSpace=wrap;html=1;rotation=90;" parent="1" vertex="1">
                    <mxGeometry x="-147.75" y="414.25" width="438.5" height="10" as="geometry"/>
                </mxCell>
                <mxCell id="DtiXAb6MUSf0ua5cTgKZ-16" value="" style="endArrow=none;dashed=1;html=1;exitX=0.5;exitY=0;exitDx=0;exitDy=0;" parent="1" source="qU1PiASJAw2EJlzAkGvy-5" target="DtiXAb6MUSf0ua5cTgKZ-15" edge="1">
                    <mxGeometry width="50" height="50" relative="1" as="geometry">
                        <mxPoint x="420" y="660" as="sourcePoint"/>
                        <mxPoint x="420.65999999999985" y="100" as="targetPoint"/>
                    </mxGeometry>
                </mxCell>
                <mxCell id="DtiXAb6MUSf0ua5cTgKZ-15" value="" style="rounded=0;whiteSpace=wrap;html=1;rotation=90;" parent="1" vertex="1">
                    <mxGeometry x="395.63" y="219.38" width="50.75" height="10" as="geometry"/>
                </mxCell>
                <mxCell id="DtiXAb6MUSf0ua5cTgKZ-17" value="" style="endArrow=classic;html=1;" parent="1" edge="1">
                    <mxGeometry width="50" height="50" relative="1" as="geometry">
                        <mxPoint x="76" y="210" as="sourcePoint"/>
                        <mxPoint x="416" y="210" as="targetPoint"/>
                    </mxGeometry>
                </mxCell>
                <mxCell id="qU1PiASJAw2EJlzAkGvy-72" style="edgeStyle=none;html=1;entryX=0;entryY=0.5;entryDx=0;entryDy=0;" parent="1" source="DtiXAb6MUSf0ua5cTgKZ-19" target="qU1PiASJAw2EJlzAkGvy-68" edge="1">
                    <mxGeometry relative="1" as="geometry">
                        <mxPoint x="1220" y="230" as="targetPoint"/>
                        <Array as="points">
                            <mxPoint x="650" y="200"/>
                            <mxPoint x="1224" y="200"/>
                        </Array>
                    </mxGeometry>
                </mxCell>
                <mxCell id="DtiXAb6MUSf0ua5cTgKZ-19" value="" style="rounded=0;whiteSpace=wrap;html=1;rotation=90;" parent="1" vertex="1">
                    <mxGeometry x="623.13" y="251.62" width="49.75" height="10" as="geometry"/>
                </mxCell>
                <mxCell id="DtiXAb6MUSf0ua5cTgKZ-20" value="" style="endArrow=classic;html=1;entryX=0.106;entryY=1.142;entryDx=0;entryDy=0;entryPerimeter=0;" parent="1" edge="1">
                    <mxGeometry width="50" height="50" relative="1" as="geometry">
                        <mxPoint x="425" y="238" as="sourcePoint"/>
                        <mxPoint x="642.585" y="237.01850000000002" as="targetPoint"/>
                    </mxGeometry>
                </mxCell>
                <mxCell id="DtiXAb6MUSf0ua5cTgKZ-21" value="" style="rounded=0;whiteSpace=wrap;html=1;rotation=90;" parent="1" vertex="1">
                    <mxGeometry x="216" y="336.38" width="50" height="10" as="geometry"/>
                </mxCell>
                <mxCell id="DtiXAb6MUSf0ua5cTgKZ-23" value="" style="rounded=0;whiteSpace=wrap;html=1;rotation=90;" parent="1" vertex="1">
                    <mxGeometry x="384" y="349.38" width="74" height="10" as="geometry"/>
                </mxCell>
                <mxCell id="DtiXAb6MUSf0ua5cTgKZ-24" value="" style="endArrow=classic;html=1;" parent="1" edge="1">
                    <mxGeometry width="50" height="50" relative="1" as="geometry">
                        <mxPoint x="250" y="326" as="sourcePoint"/>
                        <mxPoint x="414" y="326" as="targetPoint"/>
                    </mxGeometry>
                </mxCell>
                <mxCell id="DtiXAb6MUSf0ua5cTgKZ-26" value="" style="endArrow=classic;html=1;entryX=0.3;entryY=0.91;entryDx=0;entryDy=0;entryPerimeter=0;" parent="1" target="7BtNbjFXRejx8OPqEtlD-31" edge="1">
                    <mxGeometry width="50" height="50" relative="1" as="geometry">
                        <mxPoint x="430" y="330" as="sourcePoint"/>
                        <mxPoint x="1010" y="330" as="targetPoint"/>
                    </mxGeometry>
                </mxCell>
                <mxCell id="DtiXAb6MUSf0ua5cTgKZ-27" value="Case Respond system" style="rounded=0;whiteSpace=wrap;html=1;" parent="1" vertex="1">
                    <mxGeometry x="960" y="70.5" width="120" height="29.5" as="geometry"/>
                </mxCell>
                <mxCell id="DtiXAb6MUSf0ua5cTgKZ-28" value="case sorting&amp;amp;distribution system" style="rounded=0;whiteSpace=wrap;html=1;" parent="1" vertex="1">
                    <mxGeometry x="750" y="71" width="170" height="29" as="geometry"/>
                </mxCell>
                <mxCell id="E4UOZWVFqjFRS16NfBMx-1" value="Approval system" style="rounded=0;whiteSpace=wrap;html=1;" parent="1" vertex="1">
                    <mxGeometry x="1370.69" y="70.5" width="130" height="29" as="geometry"/>
                </mxCell>
                <mxCell id="7BtNbjFXRejx8OPqEtlD-4" value="Login as public" style="text;html=1;strokeColor=none;fillColor=none;align=center;verticalAlign=middle;whiteSpace=wrap;rounded=0;" parent="1" vertex="1">
                    <mxGeometry x="266" y="190" width="110" height="20" as="geometry"/>
                </mxCell>
                <mxCell id="7BtNbjFXRejx8OPqEtlD-6" value="Provide feedback&amp;nbsp;" style="text;html=1;strokeColor=none;fillColor=none;align=center;verticalAlign=middle;whiteSpace=wrap;rounded=0;" parent="1" vertex="1">
                    <mxGeometry x="480" y="217.38" width="110" height="20" as="geometry"/>
                </mxCell>
                <mxCell id="7BtNbjFXRejx8OPqEtlD-8" value="Login as staff&amp;nbsp;" style="text;html=1;strokeColor=none;fillColor=none;align=center;verticalAlign=middle;whiteSpace=wrap;rounded=0;" parent="1" vertex="1">
                    <mxGeometry x="275" y="306" width="110" height="20" as="geometry"/>
                </mxCell>
                <mxCell id="7BtNbjFXRejx8OPqEtlD-9" value="" style="rounded=0;whiteSpace=wrap;html=1;rotation=90;" parent="1" vertex="1">
                    <mxGeometry x="106.5" y="499.5" width="109" height="10" as="geometry"/>
                </mxCell>
                <mxCell id="qU1PiASJAw2EJlzAkGvy-77" style="edgeStyle=none;html=1;exitX=1;exitY=0.75;exitDx=0;exitDy=0;entryX=0.75;entryY=1;entryDx=0;entryDy=0;" parent="1" source="7BtNbjFXRejx8OPqEtlD-10" target="qU1PiASJAw2EJlzAkGvy-41" edge="1">
                    <mxGeometry relative="1" as="geometry"/>
                </mxCell>
                <mxCell id="7BtNbjFXRejx8OPqEtlD-10" value="" style="rounded=0;whiteSpace=wrap;html=1;rotation=90;" parent="1" vertex="1">
                    <mxGeometry x="384" y="482.38" width="74" height="10" as="geometry"/>
                </mxCell>
                <mxCell id="7BtNbjFXRejx8OPqEtlD-11" value="" style="endArrow=classic;html=1;" parent="1" edge="1">
                    <mxGeometry width="50" height="50" relative="1" as="geometry">
                        <mxPoint x="167" y="460" as="sourcePoint"/>
                        <mxPoint x="417" y="460" as="targetPoint"/>
                    </mxGeometry>
                </mxCell>
                <mxCell id="7BtNbjFXRejx8OPqEtlD-12" value="Login as admin" style="text;html=1;strokeColor=none;fillColor=none;align=center;verticalAlign=middle;whiteSpace=wrap;rounded=0;" parent="1" vertex="1">
                    <mxGeometry x="277" y="441" width="110" height="20" as="geometry"/>
                </mxCell>
                <mxCell id="7BtNbjFXRejx8OPqEtlD-13" value="" style="endArrow=none;dashed=1;html=1;startArrow=none;" parent="1" source="7BtNbjFXRejx8OPqEtlD-18" edge="1">
                    <mxGeometry width="50" height="50" relative="1" as="geometry">
                        <mxPoint x="834.66" y="650.689655172414" as="sourcePoint"/>
                        <mxPoint x="835.3199999999998" y="100" as="targetPoint"/>
                    </mxGeometry>
                </mxCell>
                <mxCell id="7BtNbjFXRejx8OPqEtlD-14" value="" style="endArrow=none;dashed=1;html=1;startArrow=none;" parent="1" source="7BtNbjFXRejx8OPqEtlD-31" edge="1">
                    <mxGeometry width="50" height="50" relative="1" as="geometry">
                        <mxPoint x="1021" y="649.689655172414" as="sourcePoint"/>
                        <mxPoint x="1021.6599999999999" y="99" as="targetPoint"/>
                    </mxGeometry>
                </mxCell>
                <mxCell id="7BtNbjFXRejx8OPqEtlD-17" value="" style="endArrow=none;dashed=1;html=1;exitX=0.5;exitY=0;exitDx=0;exitDy=0;" parent="1" source="qU1PiASJAw2EJlzAkGvy-11" edge="1">
                    <mxGeometry width="50" height="50" relative="1" as="geometry">
                        <mxPoint x="1440.69" y="679.5" as="sourcePoint"/>
                        <mxPoint x="1436.01" y="99.5" as="targetPoint"/>
                        <Array as="points">
                            <mxPoint x="1436.19" y="400"/>
                        </Array>
                    </mxGeometry>
                </mxCell>
                <mxCell id="7BtNbjFXRejx8OPqEtlD-19" value="" style="endArrow=none;dashed=1;html=1;startArrow=none;" parent="1" target="7BtNbjFXRejx8OPqEtlD-18" edge="1">
                    <mxGeometry width="50" height="50" relative="1" as="geometry">
                        <mxPoint x="836" y="410" as="sourcePoint"/>
                        <mxPoint x="835.3199999999995" y="100" as="targetPoint"/>
                    </mxGeometry>
                </mxCell>
                <mxCell id="qU1PiASJAw2EJlzAkGvy-34" style="edgeStyle=none;html=1;entryX=0.5;entryY=0;entryDx=0;entryDy=0;" parent="1" source="7BtNbjFXRejx8OPqEtlD-18" target="qU1PiASJAw2EJlzAkGvy-32" edge="1">
                    <mxGeometry relative="1" as="geometry">
                        <mxPoint x="880" y="430" as="targetPoint"/>
                        <Array as="points">
                            <mxPoint x="860" y="370"/>
                        </Array>
                    </mxGeometry>
                </mxCell>
                <mxCell id="7BtNbjFXRejx8OPqEtlD-18" value="" style="rounded=0;whiteSpace=wrap;html=1;rotation=90;" parent="1" vertex="1">
                    <mxGeometry x="810.12" y="251.62" width="49.75" height="10" as="geometry"/>
                </mxCell>
                <mxCell id="7BtNbjFXRejx8OPqEtlD-20" value="" style="endArrow=classic;html=1;entryX=0.404;entryY=1.358;entryDx=0;entryDy=0;entryPerimeter=0;" parent="1" edge="1">
                    <mxGeometry width="50" height="50" relative="1" as="geometry">
                        <mxPoint x="653" y="252" as="sourcePoint"/>
                        <mxPoint x="829.4149999999997" y="251.84399999999982" as="targetPoint"/>
                    </mxGeometry>
                </mxCell>
                <mxCell id="7BtNbjFXRejx8OPqEtlD-22" value="Sort category&amp;nbsp;" style="text;html=1;strokeColor=none;fillColor=none;align=center;verticalAlign=middle;whiteSpace=wrap;rounded=0;" parent="1" vertex="1">
                    <mxGeometry x="679" y="229.38" width="134" height="20" as="geometry"/>
                </mxCell>
                <mxCell id="7BtNbjFXRejx8OPqEtlD-26" value="" style="endArrow=none;dashed=1;html=1;exitX=0.5;exitY=0;exitDx=0;exitDy=0;startArrow=none;" parent="1" source="qU1PiASJAw2EJlzAkGvy-32" edge="1">
                    <mxGeometry width="50" height="50" relative="1" as="geometry">
                        <mxPoint x="834.6599999999999" y="650.689655172414" as="sourcePoint"/>
                        <mxPoint x="835.8326750440478" y="391.3800000000001" as="targetPoint"/>
                    </mxGeometry>
                </mxCell>
                <mxCell id="7BtNbjFXRejx8OPqEtlD-27" value="Respond to feedback" style="text;html=1;strokeColor=none;fillColor=none;align=center;verticalAlign=middle;whiteSpace=wrap;rounded=0;" parent="1" vertex="1">
                    <mxGeometry x="680" y="336.38" width="110" height="20" as="geometry"/>
                </mxCell>
                <mxCell id="7BtNbjFXRejx8OPqEtlD-29" value="Case Distribution&amp;nbsp;" style="text;html=1;strokeColor=none;fillColor=none;align=center;verticalAlign=middle;whiteSpace=wrap;rounded=0;" parent="1" vertex="1">
                    <mxGeometry x="853.79" y="359.38" width="78" height="20" as="geometry"/>
                </mxCell>
                <mxCell id="7BtNbjFXRejx8OPqEtlD-32" value="" style="endArrow=none;dashed=1;html=1;exitX=0.5;exitY=0;exitDx=0;exitDy=0;" parent="1" source="qU1PiASJAw2EJlzAkGvy-8" target="7BtNbjFXRejx8OPqEtlD-31" edge="1">
                    <mxGeometry width="50" height="50" relative="1" as="geometry">
                        <mxPoint x="1021.0000000000002" y="649.689655172414" as="sourcePoint"/>
                        <mxPoint x="1021.6599999999996" y="99" as="targetPoint"/>
                    </mxGeometry>
                </mxCell>
                <mxCell id="7BtNbjFXRejx8OPqEtlD-31" value="" style="rounded=0;whiteSpace=wrap;html=1;rotation=90;" parent="1" vertex="1">
                    <mxGeometry x="853.79" y="390.96" width="332.43" height="10" as="geometry"/>
                </mxCell>
                <mxCell id="qU1PiASJAw2EJlzAkGvy-1" value="Public" style="shape=umlActor;verticalLabelPosition=bottom;verticalAlign=top;html=1;outlineConnect=0;" parent="1" vertex="1">
                    <mxGeometry x="53" y="670" width="37" height="69" as="geometry"/>
                </mxCell>
                <mxCell id="qU1PiASJAw2EJlzAkGvy-2" value="staff" style="shape=umlActor;verticalLabelPosition=bottom;verticalAlign=top;html=1;outlineConnect=0;" parent="1" vertex="1">
                    <mxGeometry x="223" y="670" width="37" height="69" as="geometry"/>
                </mxCell>
                <mxCell id="qU1PiASJAw2EJlzAkGvy-3" value="management level" style="shape=umlActor;verticalLabelPosition=bottom;verticalAlign=top;html=1;outlineConnect=0;" parent="1" vertex="1">
                    <mxGeometry x="142" y="670" width="37" height="69" as="geometry"/>
                </mxCell>
                <mxCell id="qU1PiASJAw2EJlzAkGvy-4" value="" style="rounded=0;whiteSpace=wrap;html=1;" parent="1" vertex="1">
                    <mxGeometry x="326" y="689.5" width="180" height="30" as="geometry"/>
                </mxCell>
                <mxCell id="qU1PiASJAw2EJlzAkGvy-5" value="Authentication&amp;nbsp; Subsystem&amp;nbsp;" style="text;html=1;strokeColor=none;fillColor=none;align=center;verticalAlign=middle;whiteSpace=wrap;rounded=0;" parent="1" vertex="1">
                    <mxGeometry x="346" y="689.5" width="150" height="30" as="geometry"/>
                </mxCell>
                <mxCell id="qU1PiASJAw2EJlzAkGvy-6" value="" style="rounded=0;whiteSpace=wrap;html=1;" parent="1" vertex="1">
                    <mxGeometry x="558" y="689.5" width="162" height="29.5" as="geometry"/>
                </mxCell>
                <mxCell id="qU1PiASJAw2EJlzAkGvy-7" value="Feedback submit&amp;nbsp;" style="text;html=1;strokeColor=none;fillColor=none;align=center;verticalAlign=middle;whiteSpace=wrap;rounded=0;" parent="1" vertex="1">
                    <mxGeometry x="565" y="689.5" width="150" height="30" as="geometry"/>
                </mxCell>
                <mxCell id="qU1PiASJAw2EJlzAkGvy-8" value="Case Respond system" style="rounded=0;whiteSpace=wrap;html=1;" parent="1" vertex="1">
                    <mxGeometry x="960" y="689.5" width="120" height="29.5" as="geometry"/>
                </mxCell>
                <mxCell id="qU1PiASJAw2EJlzAkGvy-9" value="case sorting&amp;amp;distribution system" style="rounded=0;whiteSpace=wrap;html=1;" parent="1" vertex="1">
                    <mxGeometry x="750" y="690" width="170" height="29" as="geometry"/>
                </mxCell>
                <mxCell id="qU1PiASJAw2EJlzAkGvy-11" value="Approval system" style="rounded=0;whiteSpace=wrap;html=1;" parent="1" vertex="1">
                    <mxGeometry x="1370.69" y="689.5" width="130" height="29" as="geometry"/>
                </mxCell>
                <mxCell id="qU1PiASJAw2EJlzAkGvy-13" value="" style="endArrow=classic;html=1;entryX=0.3;entryY=0.91;entryDx=0;entryDy=0;entryPerimeter=0;" parent="1" edge="1">
                    <mxGeometry width="50" height="50" relative="1" as="geometry">
                        <mxPoint x="430" y="500.53" as="sourcePoint"/>
                        <mxPoint x="1015.905" y="500.0039999999999" as="targetPoint"/>
                    </mxGeometry>
                </mxCell>
                <mxCell id="qU1PiASJAw2EJlzAkGvy-14" value="Respond to feedback" style="text;html=1;strokeColor=none;fillColor=none;align=center;verticalAlign=middle;whiteSpace=wrap;rounded=0;" parent="1" vertex="1">
                    <mxGeometry x="680" y="464" width="110" height="20" as="geometry"/>
                </mxCell>
                <mxCell id="qU1PiASJAw2EJlzAkGvy-19" value="Distribute case to staff" style="text;html=1;strokeColor=none;fillColor=none;align=center;verticalAlign=middle;whiteSpace=wrap;rounded=0;" parent="1" vertex="1">
                    <mxGeometry x="510" y="376.5" width="137.12" height="20" as="geometry"/>
                </mxCell>
                <mxCell id="qU1PiASJAw2EJlzAkGvy-33" value="" style="endArrow=none;dashed=1;html=1;exitX=0.5;exitY=0;exitDx=0;exitDy=0;" parent="1" source="qU1PiASJAw2EJlzAkGvy-9" target="qU1PiASJAw2EJlzAkGvy-32" edge="1">
                    <mxGeometry width="50" height="50" relative="1" as="geometry">
                        <mxPoint x="835" y="690" as="sourcePoint"/>
                        <mxPoint x="835.8326750440478" y="391.3800000000001" as="targetPoint"/>
                    </mxGeometry>
                </mxCell>
                <mxCell id="qU1PiASJAw2EJlzAkGvy-36" style="edgeStyle=none;html=1;entryX=1;entryY=0.5;entryDx=0;entryDy=0;" parent="1" source="qU1PiASJAw2EJlzAkGvy-32" target="DtiXAb6MUSf0ua5cTgKZ-21" edge="1">
                    <mxGeometry relative="1" as="geometry">
                        <mxPoint x="240" y="402.96000000000004" as="targetPoint"/>
                        <Array as="points">
                            <mxPoint x="240" y="400"/>
                        </Array>
                    </mxGeometry>
                </mxCell>
                <mxCell id="qU1PiASJAw2EJlzAkGvy-79" style="edgeStyle=none;html=1;exitX=0.75;exitY=0;exitDx=0;exitDy=0;entryX=0.481;entryY=1.003;entryDx=0;entryDy=0;entryPerimeter=0;" parent="1" source="qU1PiASJAw2EJlzAkGvy-32" target="qU1PiASJAw2EJlzAkGvy-68" edge="1">
                    <mxGeometry relative="1" as="geometry"/>
                </mxCell>
                <mxCell id="qU1PiASJAw2EJlzAkGvy-32" value="" style="rounded=0;whiteSpace=wrap;html=1;rotation=90;" parent="1" vertex="1">
                    <mxGeometry x="810.13" y="397.96000000000004" width="49.75" height="10" as="geometry"/>
                </mxCell>
                <mxCell id="qU1PiASJAw2EJlzAkGvy-37" value="" style="endArrow=classic;html=1;" parent="1" edge="1">
                    <mxGeometry width="50" height="50" relative="1" as="geometry">
                        <mxPoint x="1011" y="254" as="sourcePoint"/>
                        <mxPoint x="841" y="254" as="targetPoint"/>
                    </mxGeometry>
                </mxCell>
                <mxCell id="qU1PiASJAw2EJlzAkGvy-38" value="forward case to other dept/staff if required" style="text;html=1;strokeColor=none;fillColor=none;align=center;verticalAlign=middle;whiteSpace=wrap;rounded=0;" parent="1" vertex="1">
                    <mxGeometry x="859.88" y="227.38" width="120" height="10" as="geometry"/>
                </mxCell>
                <mxCell id="qU1PiASJAw2EJlzAkGvy-40" value="" style="endArrow=classic;html=1;entryX=0.057;entryY=1.417;entryDx=0;entryDy=0;entryPerimeter=0;" parent="1" target="qU1PiASJAw2EJlzAkGvy-41" edge="1">
                    <mxGeometry width="50" height="50" relative="1" as="geometry">
                        <mxPoint x="1026.5" y="251.62" as="sourcePoint"/>
                        <mxPoint x="1365" y="250" as="targetPoint"/>
                        <Array as="points">
                            <mxPoint x="1220" y="170"/>
                        </Array>
                    </mxGeometry>
                </mxCell>
                <mxCell id="qU1PiASJAw2EJlzAkGvy-41" value="" style="rounded=0;whiteSpace=wrap;html=1;rotation=90;" parent="1" vertex="1">
                    <mxGeometry x="1240" y="418.68" width="388.79" height="10" as="geometry"/>
                </mxCell>
                <mxCell id="qU1PiASJAw2EJlzAkGvy-43" value="forward case if higher permission/approval is required" style="text;html=1;strokeColor=none;fillColor=none;align=center;verticalAlign=middle;whiteSpace=wrap;rounded=0;" parent="1" vertex="1">
                    <mxGeometry x="1265" y="180" width="168.5" height="10" as="geometry"/>
                </mxCell>
                <mxCell id="qU1PiASJAw2EJlzAkGvy-51" value="" style="endArrow=classic;html=1;exitX=0.432;exitY=1.173;exitDx=0;exitDy=0;exitPerimeter=0;entryX=0.441;entryY=-0.294;entryDx=0;entryDy=0;entryPerimeter=0;" parent="1" source="qU1PiASJAw2EJlzAkGvy-41" target="qU1PiASJAw2EJlzAkGvy-68" edge="1">
                    <mxGeometry width="50" height="50" relative="1" as="geometry">
                        <mxPoint x="1252.44" y="400.96" as="sourcePoint"/>
                        <mxPoint x="1030" y="400" as="targetPoint"/>
                    </mxGeometry>
                </mxCell>
                <mxCell id="qU1PiASJAw2EJlzAkGvy-56" value="" style="endArrow=classic;html=1;entryX=0.205;entryY=-0.35;entryDx=0;entryDy=0;entryPerimeter=0;exitX=0.143;exitY=0.973;exitDx=0;exitDy=0;exitPerimeter=0;" parent="1" source="qU1PiASJAw2EJlzAkGvy-68" target="DtiXAb6MUSf0ua5cTgKZ-13" edge="1">
                    <mxGeometry width="50" height="50" relative="1" as="geometry">
                        <mxPoint x="1010" y="290" as="sourcePoint"/>
                        <mxPoint x="420" y="260" as="targetPoint"/>
                        <Array as="points">
                            <mxPoint x="420" y="290"/>
                        </Array>
                    </mxGeometry>
                </mxCell>
                <mxCell id="qU1PiASJAw2EJlzAkGvy-57" value="check the status of cases" style="text;html=1;strokeColor=none;fillColor=none;align=center;verticalAlign=middle;whiteSpace=wrap;rounded=0;" parent="1" vertex="1">
                    <mxGeometry x="430" y="590" width="152" height="20" as="geometry"/>
                </mxCell>
                <mxCell id="qU1PiASJAw2EJlzAkGvy-62" value="" style="endArrow=classic;html=1;exitX=0.976;exitY=1.292;exitDx=0;exitDy=0;exitPerimeter=0;" parent="1" source="qU1PiASJAw2EJlzAkGvy-68" edge="1">
                    <mxGeometry width="50" height="50" relative="1" as="geometry">
                        <mxPoint x="1130" y="600" as="sourcePoint"/>
                        <mxPoint x="160" y="560" as="targetPoint"/>
                        <Array as="points">
                            <mxPoint x="160" y="610"/>
                        </Array>
                    </mxGeometry>
                </mxCell>
                <mxCell id="qU1PiASJAw2EJlzAkGvy-64" value="Track the status of case" style="text;html=1;strokeColor=none;fillColor=none;align=center;verticalAlign=middle;whiteSpace=wrap;rounded=0;" parent="1" vertex="1">
                    <mxGeometry x="430" y="261.62" width="180" height="20" as="geometry"/>
                </mxCell>
                <mxCell id="qU1PiASJAw2EJlzAkGvy-66" value="case progress" style="rounded=0;whiteSpace=wrap;html=1;" parent="1" vertex="1">
                    <mxGeometry x="1149.4" y="70.5" width="150" height="39" as="geometry"/>
                </mxCell>
                <mxCell id="qU1PiASJAw2EJlzAkGvy-67" value="" style="endArrow=none;dashed=1;html=1;exitX=0.5;exitY=0;exitDx=0;exitDy=0;" parent="1" edge="1">
                    <mxGeometry width="50" height="50" relative="1" as="geometry">
                        <mxPoint x="1223.8400000000001" y="697.96" as="sourcePoint"/>
                        <mxPoint x="1224.1600000000008" y="107.96" as="targetPoint"/>
                        <Array as="points">
                            <mxPoint x="1224.3400000000001" y="408.46"/>
                        </Array>
                    </mxGeometry>
                </mxCell>
                <mxCell id="qU1PiASJAw2EJlzAkGvy-68" value="" style="rounded=0;whiteSpace=wrap;html=1;rotation=90;" parent="1" vertex="1">
                    <mxGeometry x="1030" y="418.68" width="388.79" height="10" as="geometry"/>
                </mxCell>
                <mxCell id="qU1PiASJAw2EJlzAkGvy-69" value="case progress" style="rounded=0;whiteSpace=wrap;html=1;" parent="1" vertex="1">
                    <mxGeometry x="1149.4" y="685" width="150" height="39" as="geometry"/>
                </mxCell>
                <mxCell id="qU1PiASJAw2EJlzAkGvy-70" value="Update case progress&lt;br&gt;approve/decline" style="text;html=1;align=center;verticalAlign=middle;resizable=0;points=[];autosize=1;strokeColor=none;fillColor=none;" parent="1" vertex="1">
                    <mxGeometry x="1250" y="357.96" width="140" height="40" as="geometry"/>
                </mxCell>
                <mxCell id="qU1PiASJAw2EJlzAkGvy-73" value="case created" style="text;html=1;align=center;verticalAlign=middle;resizable=0;points=[];autosize=1;strokeColor=none;fillColor=none;" parent="1" vertex="1">
                    <mxGeometry x="845" y="175" width="90" height="30" as="geometry"/>
                </mxCell>
                <mxCell id="qU1PiASJAw2EJlzAkGvy-74" value="" style="endArrow=classic;html=1;exitX=0.25;exitY=0;exitDx=0;exitDy=0;" parent="1" source="7BtNbjFXRejx8OPqEtlD-31" edge="1">
                    <mxGeometry width="50" height="50" relative="1" as="geometry">
                        <mxPoint x="1250" y="380" as="sourcePoint"/>
                        <mxPoint x="1220" y="313" as="targetPoint"/>
                    </mxGeometry>
                </mxCell>
                <mxCell id="qU1PiASJAw2EJlzAkGvy-75" value="Update case progress" style="text;html=1;align=center;verticalAlign=middle;resizable=0;points=[];autosize=1;strokeColor=none;fillColor=none;" parent="1" vertex="1">
                    <mxGeometry x="1046.22" y="306.38" width="140" height="30" as="geometry"/>
                </mxCell>
                <mxCell id="qU1PiASJAw2EJlzAkGvy-78" value="approve/decline case" style="text;html=1;align=center;verticalAlign=middle;resizable=0;points=[];autosize=1;strokeColor=none;fillColor=none;" parent="1" vertex="1">
                    <mxGeometry x="1250" y="499.5" width="140" height="30" as="geometry"/>
                </mxCell>
                <mxCell id="qU1PiASJAw2EJlzAkGvy-80" value="Update case progress" style="text;html=1;align=center;verticalAlign=middle;resizable=0;points=[];autosize=1;strokeColor=none;fillColor=none;" parent="1" vertex="1">
                    <mxGeometry x="1046.22" y="394.25" width="140" height="30" as="geometry"/>
                </mxCell>
            </root>
        </mxGraphModel>
    </diagram>
    <diagram id="OGczbna_8WFjBizr9SMV" name="actor">
        <mxGraphModel dx="966" dy="746" grid="1" gridSize="10" guides="1" tooltips="1" connect="1" arrows="1" fold="1" page="1" pageScale="1" pageWidth="850" pageHeight="1100" math="0" shadow="0">
            <root>
                <mxCell id="0"/>
                <mxCell id="1" parent="0"/>
                <mxCell id="27" value="" style="rounded=0;whiteSpace=wrap;html=1;" parent="1" vertex="1">
                    <mxGeometry x="40" y="680" width="760" height="150" as="geometry"/>
                </mxCell>
                <mxCell id="12" value="" style="rounded=0;whiteSpace=wrap;html=1;" parent="1" vertex="1">
                    <mxGeometry x="20" y="410" width="670" height="120" as="geometry"/>
                </mxCell>
                <mxCell id="4" value="" style="rounded=0;whiteSpace=wrap;html=1;" parent="1" vertex="1">
                    <mxGeometry x="200" y="160" width="480" height="140" as="geometry"/>
                </mxCell>
                <mxCell id="9" style="edgeStyle=none;html=1;" parent="1" source="2" target="5" edge="1">
                    <mxGeometry relative="1" as="geometry"/>
                </mxCell>
                <mxCell id="10" style="edgeStyle=none;html=1;exitX=1;exitY=1;exitDx=0;exitDy=0;exitPerimeter=0;entryX=0.556;entryY=0.005;entryDx=0;entryDy=0;entryPerimeter=0;" parent="1" source="2" target="7" edge="1">
                    <mxGeometry relative="1" as="geometry"/>
                </mxCell>
                <mxCell id="2" value="Public" style="shape=umlActor;verticalLabelPosition=bottom;verticalAlign=top;html=1;outlineConnect=0;" parent="1" vertex="1">
                    <mxGeometry x="410" y="40" width="30" height="60" as="geometry"/>
                </mxCell>
                <mxCell id="5" value="Make feedback" style="ellipse;whiteSpace=wrap;html=1;" parent="1" vertex="1">
                    <mxGeometry x="250" y="202.5" width="160" height="65" as="geometry"/>
                </mxCell>
                <mxCell id="6" value="Faculty of computing feedback system" style="text;html=1;strokeColor=none;fillColor=none;align=center;verticalAlign=middle;whiteSpace=wrap;rounded=0;" parent="1" vertex="1">
                    <mxGeometry x="308" y="170" width="235" height="30" as="geometry"/>
                </mxCell>
                <mxCell id="7" value="Track the progress of feedback" style="ellipse;whiteSpace=wrap;html=1;" parent="1" vertex="1">
                    <mxGeometry x="470" y="201.25" width="140" height="68.75" as="geometry"/>
                </mxCell>
                <mxCell id="18" style="edgeStyle=none;html=1;exitX=0;exitY=1;exitDx=0;exitDy=0;exitPerimeter=0;entryX=0.5;entryY=0;entryDx=0;entryDy=0;" parent="1" source="11" target="13" edge="1">
                    <mxGeometry relative="1" as="geometry"/>
                </mxCell>
                <mxCell id="21" style="edgeStyle=none;html=1;exitX=1;exitY=1;exitDx=0;exitDy=0;exitPerimeter=0;entryX=0.5;entryY=0;entryDx=0;entryDy=0;" parent="1" source="11" target="16" edge="1">
                    <mxGeometry relative="1" as="geometry"/>
                </mxCell>
                <mxCell id="23" style="edgeStyle=none;html=1;exitX=0;exitY=1;exitDx=0;exitDy=0;exitPerimeter=0;entryX=0.5;entryY=0;entryDx=0;entryDy=0;" parent="1" source="11" target="14" edge="1">
                    <mxGeometry relative="1" as="geometry"/>
                </mxCell>
                <mxCell id="25" style="edgeStyle=none;html=1;exitX=1;exitY=1;exitDx=0;exitDy=0;exitPerimeter=0;entryX=0.5;entryY=0;entryDx=0;entryDy=0;" parent="1" source="11" target="24" edge="1">
                    <mxGeometry relative="1" as="geometry"/>
                </mxCell>
                <mxCell id="11" value="Staff" style="shape=umlActor;verticalLabelPosition=bottom;verticalAlign=top;html=1;outlineConnect=0;" parent="1" vertex="1">
                    <mxGeometry x="420" y="320" width="20.5" height="40" as="geometry"/>
                </mxCell>
                <mxCell id="13" value="Receive feedback or complain" style="ellipse;whiteSpace=wrap;html=1;" parent="1" vertex="1">
                    <mxGeometry x="40" y="457.5" width="80" height="50" as="geometry"/>
                </mxCell>
                <mxCell id="14" value="Update the status the each case (action taken/problem solved? solution etc)" style="ellipse;whiteSpace=wrap;html=1;" parent="1" vertex="1">
                    <mxGeometry x="130" y="442.5" width="230" height="65" as="geometry"/>
                </mxCell>
                <mxCell id="16" value="Forward case to other department if needed" style="ellipse;whiteSpace=wrap;html=1;" parent="1" vertex="1">
                    <mxGeometry x="375.5" y="457.5" width="120" height="50" as="geometry"/>
                </mxCell>
                <mxCell id="17" value="Faculty of computing feedback system" style="text;html=1;strokeColor=none;fillColor=none;align=center;verticalAlign=middle;whiteSpace=wrap;rounded=0;" parent="1" vertex="1">
                    <mxGeometry x="318" y="420" width="235" height="30" as="geometry"/>
                </mxCell>
                <mxCell id="34" style="edgeStyle=none;html=1;exitX=0;exitY=1;exitDx=0;exitDy=0;exitPerimeter=0;entryX=0.563;entryY=0.058;entryDx=0;entryDy=0;entryPerimeter=0;" parent="1" source="22" target="30" edge="1">
                    <mxGeometry relative="1" as="geometry"/>
                </mxCell>
                <mxCell id="35" style="edgeStyle=none;html=1;exitX=0;exitY=1;exitDx=0;exitDy=0;exitPerimeter=0;entryX=0.5;entryY=0;entryDx=0;entryDy=0;" parent="1" source="22" target="31" edge="1">
                    <mxGeometry relative="1" as="geometry"/>
                </mxCell>
                <mxCell id="36" style="edgeStyle=none;html=1;exitX=1;exitY=1;exitDx=0;exitDy=0;exitPerimeter=0;entryX=0.437;entryY=-0.037;entryDx=0;entryDy=0;entryPerimeter=0;" parent="1" source="22" target="33" edge="1">
                    <mxGeometry relative="1" as="geometry"/>
                </mxCell>
                <mxCell id="37" style="edgeStyle=none;html=1;exitX=0.5;exitY=0.5;exitDx=0;exitDy=0;exitPerimeter=0;" parent="1" source="22" target="32" edge="1">
                    <mxGeometry relative="1" as="geometry"/>
                </mxCell>
                <mxCell id="22" value="management level（dean, manager etc)" style="shape=umlActor;verticalLabelPosition=bottom;verticalAlign=top;html=1;outlineConnect=0;" parent="1" vertex="1">
                    <mxGeometry x="413" y="540" width="30" height="60" as="geometry"/>
                </mxCell>
                <mxCell id="24" value="Forward case to managment level if any approval or higher level of access is required" style="ellipse;whiteSpace=wrap;html=1;" parent="1" vertex="1">
                    <mxGeometry x="509" y="450" width="170" height="70" as="geometry"/>
                </mxCell>
                <mxCell id="29" value="Faculty of computing feedback system" style="text;html=1;strokeColor=none;fillColor=none;align=center;verticalAlign=middle;whiteSpace=wrap;rounded=0;" parent="1" vertex="1">
                    <mxGeometry x="302.5" y="690" width="235" height="30" as="geometry"/>
                </mxCell>
                <mxCell id="30" value="Review the progress of cases" style="ellipse;whiteSpace=wrap;html=1;" parent="1" vertex="1">
                    <mxGeometry x="60" y="730" width="120" height="80" as="geometry"/>
                </mxCell>
                <mxCell id="31" value="Review the record of cases" style="ellipse;whiteSpace=wrap;html=1;" parent="1" vertex="1">
                    <mxGeometry x="198" y="730" width="120" height="80" as="geometry"/>
                </mxCell>
                <mxCell id="32" value="Approve or withraw the action taken&amp;nbsp;&amp;nbsp;" style="ellipse;whiteSpace=wrap;html=1;" parent="1" vertex="1">
                    <mxGeometry x="340" y="730" width="120" height="80" as="geometry"/>
                </mxCell>
                <mxCell id="33" value="Overide and redistribute the case to different staff if needed" style="ellipse;whiteSpace=wrap;html=1;" parent="1" vertex="1">
                    <mxGeometry x="470" y="730" width="120" height="80" as="geometry"/>
                </mxCell>
            </root>
        </mxGraphModel>
    </diagram>
</mxfile>